<svg width="242" height="60" viewBox="0 0 242 60" fill="none" xmlns="http://www.w3.org/2000/svg">
<path d="M69.4507 8.49714C71.2267 8.49714 72.7747 8.83314 74.0947 9.50514C75.4387 10.1771 76.5427 11.1131 77.4067 12.3131C78.2707 13.4891 78.9067 14.8331 79.3147 16.3451C79.7467 17.8571 79.9627 19.4411 79.9627 21.0971C79.9627 23.4011 79.5787 25.5131 78.8107 27.4331C78.0667 29.3291 76.9147 30.8531 75.3547 32.0051C73.8187 33.1331 71.8507 33.6971 69.4507 33.6971H60.2707C59.9827 33.6971 59.7307 33.5891 59.5147 33.3731C59.2987 33.1571 59.1907 32.9051 59.1907 32.6171V9.57714C59.1907 9.28914 59.2987 9.03714 59.5147 8.82114C59.7307 8.60514 59.9827 8.49714 60.2707 8.49714H69.4507ZM69.0907 31.5731C71.1307 31.5731 72.7747 31.1051 74.0227 30.1691C75.2707 29.2331 76.1827 27.9731 76.7587 26.3891C77.3587 24.7811 77.6587 23.0171 77.6587 21.0971C77.6587 19.7051 77.4907 18.3851 77.1547 17.1371C76.8427 15.8651 76.3387 14.7491 75.6427 13.7891C74.9707 12.8051 74.0827 12.0371 72.9787 11.4851C71.8987 10.9091 70.6027 10.6211 69.0907 10.6211H61.2067L61.4587 10.2971V31.9331L61.2427 31.5731H69.0907ZM93.1229 34.0571C91.2749 34.0571 89.6429 33.6611 88.2269 32.8691C86.8109 32.0771 85.7069 30.9731 84.9149 29.5571C84.1229 28.1411 83.7269 26.4851 83.7269 24.5891C83.7269 22.5491 84.1229 20.8091 84.9149 19.3691C85.7309 17.9291 86.7749 16.8251 88.0469 16.0571C89.3429 15.2651 90.7109 14.8691 92.1509 14.8691C93.2069 14.8691 94.2269 15.0611 95.2109 15.4451C96.2189 15.8051 97.1069 16.3571 97.8749 17.1011C98.6669 17.8211 99.2909 18.7091 99.7469 19.7651C100.227 20.8211 100.491 22.0451 100.539 23.4371C100.515 23.7251 100.395 23.9771 100.179 24.1931C99.9629 24.3851 99.7109 24.4811 99.4229 24.4811H84.9869L84.5549 22.5371H98.7389L98.2709 22.9691V22.2491C98.1749 21.1211 97.8149 20.1611 97.1909 19.3691C96.5669 18.5771 95.8109 17.9771 94.9229 17.5691C94.0349 17.1611 93.1109 16.9571 92.1509 16.9571C91.4309 16.9571 90.6869 17.1011 89.9189 17.3891C89.1749 17.6771 88.4909 18.1331 87.8669 18.7571C87.2669 19.3571 86.7749 20.1371 86.3909 21.0971C86.0069 22.0331 85.8149 23.1491 85.8149 24.4451C85.8149 25.8611 86.1029 27.1451 86.6789 28.2971C87.2549 29.4491 88.0829 30.3611 89.1629 31.0331C90.2669 31.7051 91.5749 32.0411 93.0869 32.0411C93.9269 32.0411 94.6829 31.9211 95.3549 31.6811C96.0269 31.4411 96.6149 31.1291 97.1189 30.7451C97.6229 30.3371 98.0429 29.9171 98.3789 29.4851C98.6429 29.2691 98.9069 29.1611 99.1709 29.1611C99.4109 29.1611 99.6149 29.2571 99.7829 29.4491C99.9749 29.6411 100.071 29.8571 100.071 30.0971C100.071 30.3851 99.9509 30.6371 99.7109 30.8531C98.9909 31.7171 98.0549 32.4731 96.9029 33.1211C95.7509 33.7451 94.4909 34.0571 93.1229 34.0571ZM113.838 14.8691C115.422 14.8691 116.682 15.1931 117.618 15.8411C118.578 16.4651 119.262 17.3291 119.67 18.4331C120.102 19.5131 120.318 20.7131 120.318 22.0331V32.6171C120.318 32.9051 120.21 33.1571 119.994 33.3731C119.778 33.5891 119.526 33.6971 119.238 33.6971C118.902 33.6971 118.638 33.5891 118.446 33.3731C118.254 33.1571 118.158 32.9051 118.158 32.6171V22.1411C118.158 21.1811 118.002 20.3051 117.69 19.5131C117.378 18.7211 116.862 18.0851 116.142 17.6051C115.446 17.1251 114.522 16.8851 113.37 16.8851C112.338 16.8851 111.354 17.1251 110.418 17.6051C109.506 18.0851 108.762 18.7211 108.186 19.5131C107.61 20.3051 107.322 21.1811 107.322 22.1411V32.6171C107.322 32.9051 107.214 33.1571 106.998 33.3731C106.782 33.5891 106.53 33.6971 106.242 33.6971C105.906 33.6971 105.642 33.5891 105.45 33.3731C105.258 33.1571 105.162 32.9051 105.162 32.6171V16.4891C105.162 16.2011 105.258 15.9491 105.45 15.7331C105.666 15.5171 105.93 15.4091 106.242 15.4091C106.554 15.4091 106.806 15.5171 106.998 15.7331C107.214 15.9491 107.322 16.2011 107.322 16.4891V19.5131L106.494 20.8091C106.542 20.0411 106.782 19.3091 107.214 18.6131C107.67 17.8931 108.246 17.2571 108.942 16.7051C109.638 16.1291 110.406 15.6851 111.246 15.3731C112.11 15.0371 112.974 14.8691 113.838 14.8691ZM124.787 15.3731H133.175C133.463 15.3731 133.703 15.4811 133.895 15.6971C134.087 15.8891 134.183 16.1291 134.183 16.4171C134.183 16.6811 134.087 16.9091 133.895 17.1011C133.703 17.2931 133.463 17.3891 133.175 17.3891H124.787C124.499 17.3891 124.247 17.2931 124.031 17.1011C123.839 16.8851 123.743 16.6451 123.743 16.3811C123.743 16.0931 123.839 15.8531 124.031 15.6611C124.247 15.4691 124.499 15.3731 124.787 15.3731ZM128.495 10.2971C128.807 10.2971 129.059 10.4051 129.251 10.6211C129.467 10.8371 129.575 11.0891 129.575 11.3771V29.4491C129.575 30.1211 129.659 30.6251 129.827 30.9611C130.019 31.2971 130.259 31.5251 130.547 31.6451C130.835 31.7411 131.123 31.7891 131.411 31.7891C131.603 31.7891 131.771 31.7651 131.915 31.7171C132.083 31.6451 132.263 31.6091 132.455 31.6091C132.671 31.6091 132.851 31.6931 132.995 31.8611C133.163 32.0291 133.247 32.2451 133.247 32.5091C133.247 32.8451 133.055 33.1331 132.671 33.3731C132.287 33.5891 131.831 33.6971 131.303 33.6971C131.087 33.6971 130.763 33.6851 130.331 33.6611C129.899 33.6131 129.455 33.4811 128.999 33.2651C128.543 33.0251 128.159 32.6171 127.847 32.0411C127.559 31.4651 127.415 30.6371 127.415 29.5571V11.3771C127.415 11.0891 127.511 10.8371 127.703 10.6211C127.919 10.4051 128.183 10.2971 128.495 10.2971ZM140.262 32.6171C140.262 32.9051 140.154 33.1571 139.938 33.3731C139.722 33.5891 139.47 33.6971 139.182 33.6971C138.87 33.6971 138.606 33.5891 138.39 33.3731C138.198 33.1571 138.102 32.9051 138.102 32.6171V16.0571C138.102 15.7691 138.198 15.5171 138.39 15.3011C138.606 15.0851 138.87 14.9771 139.182 14.9771C139.494 14.9771 139.746 15.0851 139.938 15.3011C140.154 15.5171 140.262 15.7691 140.262 16.0571V32.6171ZM139.182 12.5651C138.678 12.5651 138.294 12.4571 138.03 12.2411C137.79 12.0011 137.67 11.6651 137.67 11.2331V10.8731C137.67 10.4411 137.802 10.1171 138.066 9.90114C138.354 9.66114 138.738 9.54114 139.218 9.54114C139.674 9.54114 140.022 9.66114 140.262 9.90114C140.526 10.1171 140.658 10.4411 140.658 10.8731V11.2331C140.658 11.6651 140.526 12.0011 140.262 12.2411C140.022 12.4571 139.662 12.5651 139.182 12.5651ZM144.829 30.7811C144.637 30.4931 144.541 30.2171 144.541 29.9531C144.565 29.6651 144.721 29.4371 145.009 29.2691C145.201 29.1011 145.417 29.0291 145.657 29.0531C145.921 29.0771 146.161 29.1971 146.377 29.4131C147.025 30.2531 147.805 30.9371 148.717 31.4651C149.653 31.9691 150.757 32.2211 152.029 32.2211C152.701 32.2211 153.361 32.1131 154.009 31.8971C154.681 31.6571 155.233 31.3091 155.665 30.8531C156.097 30.3731 156.313 29.7731 156.313 29.0531C156.313 28.3091 156.097 27.7091 155.665 27.2531C155.233 26.7971 154.669 26.4371 153.973 26.1731C153.301 25.9091 152.581 25.6811 151.813 25.4891C150.997 25.2731 150.205 25.0331 149.437 24.7691C148.669 24.4811 147.985 24.1331 147.385 23.7251C146.809 23.2931 146.341 22.7771 145.981 22.1771C145.621 21.5771 145.441 20.8451 145.441 19.9811C145.441 18.9731 145.717 18.0851 146.269 17.3171C146.821 16.5491 147.565 15.9491 148.501 15.5171C149.461 15.0851 150.541 14.8691 151.741 14.8691C152.341 14.8691 152.989 14.9531 153.685 15.1211C154.381 15.2651 155.065 15.5171 155.737 15.8771C156.409 16.2371 157.009 16.7291 157.537 17.3531C157.753 17.5691 157.861 17.8211 157.861 18.1091C157.861 18.3731 157.741 18.6131 157.501 18.8291C157.309 18.9731 157.081 19.0451 156.817 19.0451C156.577 19.0451 156.373 18.9491 156.205 18.7571C155.629 18.1091 154.945 17.6171 154.153 17.2811C153.361 16.9451 152.509 16.7771 151.597 16.7771C150.901 16.7771 150.241 16.8971 149.617 17.1371C149.017 17.3531 148.513 17.6891 148.105 18.1451C147.697 18.6011 147.493 19.2011 147.493 19.9451C147.541 20.6411 147.781 21.2051 148.213 21.6371C148.669 22.0691 149.257 22.4291 149.977 22.7171C150.721 23.0051 151.549 23.2691 152.461 23.5091C153.229 23.7011 153.961 23.9291 154.657 24.1931C155.377 24.4571 156.001 24.7931 156.529 25.2011C157.081 25.5851 157.513 26.0771 157.825 26.6771C158.161 27.2771 158.329 28.0331 158.329 28.9451C158.329 30.0011 158.029 30.9131 157.429 31.6811C156.853 32.4491 156.073 33.0371 155.089 33.4451C154.105 33.8531 153.013 34.0571 151.813 34.0571C150.517 34.0571 149.257 33.8051 148.033 33.3011C146.833 32.7971 145.765 31.9571 144.829 30.7811ZM161.56 15.3731H169.948C170.236 15.3731 170.476 15.4811 170.668 15.6971C170.86 15.8891 170.956 16.1291 170.956 16.4171C170.956 16.6811 170.86 16.9091 170.668 17.1011C170.476 17.2931 170.236 17.3891 169.948 17.3891H161.56C161.272 17.3891 161.02 17.2931 160.804 17.1011C160.612 16.8851 160.516 16.6451 160.516 16.3811C160.516 16.0931 160.612 15.8531 160.804 15.6611C161.02 15.4691 161.272 15.3731 161.56 15.3731ZM165.268 10.2971C165.58 10.2971 165.832 10.4051 166.024 10.6211C166.24 10.8371 166.348 11.0891 166.348 11.3771V29.4491C166.348 30.1211 166.432 30.6251 166.6 30.9611C166.792 31.2971 167.032 31.5251 167.32 31.6451C167.608 31.7411 167.896 31.7891 168.184 31.7891C168.376 31.7891 168.544 31.7651 168.688 31.7171C168.856 31.6451 169.036 31.6091 169.228 31.6091C169.444 31.6091 169.624 31.6931 169.768 31.8611C169.936 32.0291 170.02 32.2451 170.02 32.5091C170.02 32.8451 169.828 33.1331 169.444 33.3731C169.06 33.5891 168.604 33.6971 168.076 33.6971C167.86 33.6971 167.536 33.6851 167.104 33.6611C166.672 33.6131 166.228 33.4811 165.772 33.2651C165.316 33.0251 164.932 32.6171 164.62 32.0411C164.332 31.4651 164.188 30.6371 164.188 29.5571V11.3771C164.188 11.0891 164.284 10.8371 164.476 10.6211C164.692 10.4051 164.956 10.2971 165.268 10.2971ZM176.028 33.6971C175.692 33.6971 175.428 33.5891 175.236 33.3731C175.044 33.1571 174.948 32.9051 174.948 32.6171V16.4891C174.948 16.2011 175.044 15.9491 175.236 15.7331C175.452 15.5171 175.716 15.4091 176.028 15.4091C176.34 15.4091 176.592 15.5171 176.784 15.7331C177 15.9491 177.108 16.2011 177.108 16.4891V21.8891L176.568 21.9971C176.64 21.1571 176.844 20.3291 177.18 19.5131C177.54 18.6731 178.02 17.9051 178.62 17.2091C179.22 16.5131 179.928 15.9491 180.744 15.5171C181.584 15.0851 182.52 14.8691 183.552 14.8691C183.984 14.8691 184.404 14.9651 184.812 15.1571C185.22 15.3251 185.424 15.6131 185.424 16.0211C185.424 16.3811 185.328 16.6571 185.136 16.8491C184.944 17.0411 184.716 17.1371 184.452 17.1371C184.236 17.1371 183.996 17.0771 183.732 16.9571C183.492 16.8371 183.168 16.7771 182.76 16.7771C182.088 16.7771 181.416 16.9811 180.744 17.3891C180.072 17.7731 179.46 18.3011 178.908 18.9731C178.356 19.6451 177.912 20.4011 177.576 21.2411C177.264 22.0571 177.108 22.8851 177.108 23.7251V32.6171C177.108 32.9051 177 33.1571 176.784 33.3731C176.568 33.5891 176.316 33.6971 176.028 33.6971ZM202.515 14.9771C202.827 14.9771 203.079 15.0851 203.271 15.3011C203.487 15.5171 203.595 15.7691 203.595 16.0571V31.9331C203.595 33.8771 203.211 35.5091 202.443 36.8291C201.675 38.1731 200.643 39.1811 199.347 39.8531C198.051 40.5491 196.575 40.8971 194.919 40.8971C193.887 40.8971 192.927 40.7771 192.039 40.5371C191.175 40.3211 190.467 40.0331 189.915 39.6731C189.627 39.5051 189.411 39.3011 189.267 39.0611C189.123 38.8211 189.111 38.5691 189.231 38.3051C189.351 37.9691 189.531 37.7411 189.771 37.6211C190.035 37.5251 190.299 37.5371 190.563 37.6571C190.971 37.8731 191.559 38.1371 192.327 38.4491C193.095 38.7611 193.971 38.9171 194.955 38.9171C196.275 38.9171 197.415 38.6411 198.375 38.0891C199.359 37.5371 200.115 36.7331 200.643 35.6771C201.171 34.6451 201.435 33.4091 201.435 31.9691V29.3771L201.687 30.2411C201.327 30.9851 200.811 31.6451 200.139 32.2211C199.491 32.7971 198.735 33.2531 197.871 33.5891C197.031 33.9011 196.131 34.0571 195.171 34.0571C193.731 34.0571 192.531 33.7691 191.571 33.1931C190.635 32.5931 189.939 31.7771 189.483 30.7451C189.027 29.7131 188.799 28.5011 188.799 27.1091V16.0571C188.799 15.7691 188.895 15.5171 189.087 15.3011C189.279 15.0851 189.543 14.9771 189.879 14.9771C190.191 14.9771 190.443 15.0851 190.635 15.3011C190.851 15.5171 190.959 15.7691 190.959 16.0571V26.7851C190.959 28.4651 191.319 29.7611 192.039 30.6731C192.783 31.5851 193.983 32.0411 195.639 32.0411C196.671 32.0411 197.619 31.8011 198.483 31.3211C199.347 30.8171 200.055 30.1691 200.607 29.3771C201.159 28.5611 201.435 27.6971 201.435 26.7851V16.0571C201.435 15.7691 201.531 15.5171 201.723 15.3011C201.939 15.0851 202.203 14.9771 202.515 14.9771Z" fill="black"/>
<path d="M16.0851 9.54547C12.6 13.0909 11.5276 17.7273 12.3319 27.6818C13.1361 38.0455 17.9617 50.0455 21.8489 51.2727C25.0659 52.3637 28.1489 48.8182 28.1489 43.9091C28.1489 39.9546 30.5617 35.1818 32.1702 36.1364C32.8404 36.5455 33.7787 39.5455 34.3149 42.9546C35.7893 53.4546 40.7489 54.5455 45.3064 45.4091C49.1936 37.6364 51.4723 25.7727 50.4 18.5455C49.0596 10.0909 44.5021 6.27275 36.8617 7.50002C33.9127 8.04547 30.9638 9.00002 30.4276 9.54547C28.283 11.4546 31.7681 12.1364 36.7276 10.7727C43.0276 9.00002 46.3787 11.4546 47.5851 18.8182C48.9255 27.5455 43.4298 47.8637 39.5425 48.2727C38.8723 48.2727 37.8 45.6818 37.1298 42.2727C35.7893 35.1818 34.1808 32.7273 30.8298 32.7273C28.417 32.7273 25.4681 37.9091 25.4681 42.2727C25.4681 45.5455 24.1276 49.0909 22.7872 49.0909C20.7766 49.0909 15.817 34.7727 15.1468 27C14.3425 18.1364 16.3532 11.4546 20.2404 10.2273C21.5808 9.68184 22.7872 8.72729 22.7872 8.04547C22.7872 5.86366 18.9 6.68184 16.0851 9.54547Z" fill="black"/>
<path d="M35.9234 15.6818C33.9128 16.7727 31.0979 17.5909 29.6234 17.3182C28.1489 17.1818 26.8085 17.5909 26.5404 18.4091C25.8702 20.4545 33.5106 20.8636 36.9957 18.9545C39.9447 17.4545 42.4915 13.6364 40.4808 13.6364C39.9447 13.7727 37.934 14.5909 35.9234 15.6818Z" fill="black"/>
</svg>
