<svg width="222" height="39" viewBox="0 0 222 39" fill="none" xmlns="http://www.w3.org/2000/svg">
<path d="M49.4507 6.49714C51.2267 6.49714 52.7747 6.83314 54.0947 7.50514C55.4387 8.17714 56.5427 9.11314 57.4067 10.3131C58.2707 11.4891 58.9067 12.8331 59.3147 14.3451C59.7467 15.8571 59.9627 17.4411 59.9627 19.0971C59.9627 21.4011 59.5787 23.5131 58.8107 25.4331C58.0667 27.3291 56.9147 28.8531 55.3547 30.0051C53.8187 31.1331 51.8507 31.6971 49.4507 31.6971H40.2707C39.9827 31.6971 39.7307 31.5891 39.5147 31.3731C39.2987 31.1571 39.1907 30.9051 39.1907 30.6171V7.57714C39.1907 7.28914 39.2987 7.03714 39.5147 6.82114C39.7307 6.60514 39.9827 6.49714 40.2707 6.49714H49.4507ZM49.0907 29.5731C51.1307 29.5731 52.7747 29.1051 54.0227 28.1691C55.2707 27.2331 56.1827 25.9731 56.7587 24.3891C57.3587 22.7811 57.6587 21.0171 57.6587 19.0971C57.6587 17.7051 57.4907 16.3851 57.1547 15.1371C56.8427 13.8651 56.3387 12.7491 55.6427 11.7891C54.9707 10.8051 54.0827 10.0371 52.9787 9.48514C51.8987 8.90914 50.6027 8.62114 49.0907 8.62114H41.2067L41.4587 8.29714V29.9331L41.2427 29.5731H49.0907ZM73.1229 32.0571C71.2749 32.0571 69.6429 31.6611 68.2269 30.8691C66.8109 30.0771 65.7069 28.9731 64.9149 27.5571C64.1229 26.1411 63.7269 24.4851 63.7269 22.5891C63.7269 20.5491 64.1229 18.8091 64.9149 17.3691C65.7309 15.9291 66.7749 14.8251 68.0469 14.0571C69.3429 13.2651 70.7109 12.8691 72.1509 12.8691C73.2069 12.8691 74.2269 13.0611 75.2109 13.4451C76.2189 13.8051 77.1069 14.3571 77.8749 15.1011C78.6669 15.8211 79.2909 16.7091 79.7469 17.7651C80.2269 18.8211 80.4909 20.0451 80.5389 21.4371C80.5149 21.7251 80.3949 21.9771 80.1789 22.1931C79.9629 22.3851 79.7109 22.4811 79.4229 22.4811H64.9869L64.5549 20.5371H78.7389L78.2709 20.9691V20.2491C78.1749 19.1211 77.8149 18.1611 77.1909 17.3691C76.5669 16.5771 75.8109 15.9771 74.9229 15.5691C74.0349 15.1611 73.1109 14.9571 72.1509 14.9571C71.4309 14.9571 70.6869 15.1011 69.9189 15.3891C69.1749 15.6771 68.4909 16.1331 67.8669 16.7571C67.2669 17.3571 66.7749 18.1371 66.3909 19.0971C66.0069 20.0331 65.8149 21.1491 65.8149 22.4451C65.8149 23.8611 66.1029 25.1451 66.6789 26.2971C67.2549 27.4491 68.0829 28.3611 69.1629 29.0331C70.2669 29.7051 71.5749 30.0411 73.0869 30.0411C73.9269 30.0411 74.6829 29.9211 75.3549 29.6811C76.0269 29.4411 76.6149 29.1291 77.1189 28.7451C77.6229 28.3371 78.0429 27.9171 78.3789 27.4851C78.6429 27.2691 78.9069 27.1611 79.1709 27.1611C79.4109 27.1611 79.6149 27.2571 79.7829 27.4491C79.9749 27.6411 80.0709 27.8571 80.0709 28.0971C80.0709 28.3851 79.9509 28.6371 79.7109 28.8531C78.9909 29.7171 78.0549 30.4731 76.9029 31.1211C75.7509 31.7451 74.4909 32.0571 73.1229 32.0571ZM93.8384 12.8691C95.4224 12.8691 96.6824 13.1931 97.6184 13.8411C98.5784 14.4651 99.2624 15.3291 99.6704 16.4331C100.102 17.5131 100.318 18.7131 100.318 20.0331V30.6171C100.318 30.9051 100.21 31.1571 99.9944 31.3731C99.7784 31.5891 99.5264 31.6971 99.2384 31.6971C98.9024 31.6971 98.6384 31.5891 98.4464 31.3731C98.2544 31.1571 98.1584 30.9051 98.1584 30.6171V20.1411C98.1584 19.1811 98.0024 18.3051 97.6904 17.5131C97.3784 16.7211 96.8624 16.0851 96.1424 15.6051C95.4464 15.1251 94.5224 14.8851 93.3704 14.8851C92.3384 14.8851 91.3544 15.1251 90.4184 15.6051C89.5064 16.0851 88.7624 16.7211 88.1864 17.5131C87.6104 18.3051 87.3224 19.1811 87.3224 20.1411V30.6171C87.3224 30.9051 87.2144 31.1571 86.9984 31.3731C86.7824 31.5891 86.5304 31.6971 86.2424 31.6971C85.9064 31.6971 85.6424 31.5891 85.4504 31.3731C85.2584 31.1571 85.1624 30.9051 85.1624 30.6171V14.4891C85.1624 14.2011 85.2584 13.9491 85.4504 13.7331C85.6664 13.5171 85.9304 13.4091 86.2424 13.4091C86.5544 13.4091 86.8064 13.5171 86.9984 13.7331C87.2144 13.9491 87.3224 14.2011 87.3224 14.4891V17.5131L86.4944 18.8091C86.5424 18.0411 86.7824 17.3091 87.2144 16.6131C87.6704 15.8931 88.2464 15.2571 88.9424 14.7051C89.6384 14.1291 90.4064 13.6851 91.2464 13.3731C92.1104 13.0371 92.9744 12.8691 93.8384 12.8691ZM104.787 13.3731H113.175C113.463 13.3731 113.703 13.4811 113.895 13.6971C114.087 13.8891 114.183 14.1291 114.183 14.4171C114.183 14.6811 114.087 14.9091 113.895 15.1011C113.703 15.2931 113.463 15.3891 113.175 15.3891H104.787C104.499 15.3891 104.247 15.2931 104.031 15.1011C103.839 14.8851 103.743 14.6451 103.743 14.3811C103.743 14.0931 103.839 13.8531 104.031 13.6611C104.247 13.4691 104.499 13.3731 104.787 13.3731ZM108.495 8.29714C108.807 8.29714 109.059 8.40514 109.251 8.62114C109.467 8.83714 109.575 9.08914 109.575 9.37714V27.4491C109.575 28.1211 109.659 28.6251 109.827 28.9611C110.019 29.2971 110.259 29.5251 110.547 29.6451C110.835 29.7411 111.123 29.7891 111.411 29.7891C111.603 29.7891 111.771 29.7651 111.915 29.7171C112.083 29.6451 112.263 29.6091 112.455 29.6091C112.671 29.6091 112.851 29.6931 112.995 29.8611C113.163 30.0291 113.247 30.2451 113.247 30.5091C113.247 30.8451 113.055 31.1331 112.671 31.3731C112.287 31.5891 111.831 31.6971 111.303 31.6971C111.087 31.6971 110.763 31.6851 110.331 31.6611C109.899 31.6131 109.455 31.4811 108.999 31.2651C108.543 31.0251 108.159 30.6171 107.847 30.0411C107.559 29.4651 107.415 28.6371 107.415 27.5571V9.37714C107.415 9.08914 107.511 8.83714 107.703 8.62114C107.919 8.40514 108.183 8.29714 108.495 8.29714ZM120.262 30.6171C120.262 30.9051 120.154 31.1571 119.938 31.3731C119.722 31.5891 119.47 31.6971 119.182 31.6971C118.87 31.6971 118.606 31.5891 118.39 31.3731C118.198 31.1571 118.102 30.9051 118.102 30.6171V14.0571C118.102 13.7691 118.198 13.5171 118.39 13.3011C118.606 13.0851 118.87 12.9771 119.182 12.9771C119.494 12.9771 119.746 13.0851 119.938 13.3011C120.154 13.5171 120.262 13.7691 120.262 14.0571V30.6171ZM119.182 10.5651C118.678 10.5651 118.294 10.4571 118.03 10.2411C117.79 10.0011 117.67 9.66514 117.67 9.23314V8.87314C117.67 8.44114 117.802 8.11714 118.066 7.90114C118.354 7.66114 118.738 7.54114 119.218 7.54114C119.674 7.54114 120.022 7.66114 120.262 7.90114C120.526 8.11714 120.658 8.44114 120.658 8.87314V9.23314C120.658 9.66514 120.526 10.0011 120.262 10.2411C120.022 10.4571 119.662 10.5651 119.182 10.5651ZM124.829 28.7811C124.637 28.4931 124.541 28.2171 124.541 27.9531C124.565 27.6651 124.721 27.4371 125.009 27.2691C125.201 27.1011 125.417 27.0291 125.657 27.0531C125.921 27.0771 126.161 27.1971 126.377 27.4131C127.025 28.2531 127.805 28.9371 128.717 29.4651C129.653 29.9691 130.757 30.2211 132.029 30.2211C132.701 30.2211 133.361 30.1131 134.009 29.8971C134.681 29.6571 135.233 29.3091 135.665 28.8531C136.097 28.3731 136.313 27.7731 136.313 27.0531C136.313 26.3091 136.097 25.7091 135.665 25.2531C135.233 24.7971 134.669 24.4371 133.973 24.1731C133.301 23.9091 132.581 23.6811 131.813 23.4891C130.997 23.2731 130.205 23.0331 129.437 22.7691C128.669 22.4811 127.985 22.1331 127.385 21.7251C126.809 21.2931 126.341 20.7771 125.981 20.1771C125.621 19.5771 125.441 18.8451 125.441 17.9811C125.441 16.9731 125.717 16.0851 126.269 15.3171C126.821 14.5491 127.565 13.9491 128.501 13.5171C129.461 13.0851 130.541 12.8691 131.741 12.8691C132.341 12.8691 132.989 12.9531 133.685 13.1211C134.381 13.2651 135.065 13.5171 135.737 13.8771C136.409 14.2371 137.009 14.7291 137.537 15.3531C137.753 15.5691 137.861 15.8211 137.861 16.1091C137.861 16.3731 137.741 16.6131 137.501 16.8291C137.309 16.9731 137.081 17.0451 136.817 17.0451C136.577 17.0451 136.373 16.9491 136.205 16.7571C135.629 16.1091 134.945 15.6171 134.153 15.2811C133.361 14.9451 132.509 14.7771 131.597 14.7771C130.901 14.7771 130.241 14.8971 129.617 15.1371C129.017 15.3531 128.513 15.6891 128.105 16.1451C127.697 16.6011 127.493 17.2011 127.493 17.9451C127.541 18.6411 127.781 19.2051 128.213 19.6371C128.669 20.0691 129.257 20.4291 129.977 20.7171C130.721 21.0051 131.549 21.2691 132.461 21.5091C133.229 21.7011 133.961 21.9291 134.657 22.1931C135.377 22.4571 136.001 22.7931 136.529 23.2011C137.081 23.5851 137.513 24.0771 137.825 24.6771C138.161 25.2771 138.329 26.0331 138.329 26.9451C138.329 28.0011 138.029 28.9131 137.429 29.6811C136.853 30.4491 136.073 31.0371 135.089 31.4451C134.105 31.8531 133.013 32.0571 131.813 32.0571C130.517 32.0571 129.257 31.8051 128.033 31.3011C126.833 30.7971 125.765 29.9571 124.829 28.7811ZM141.56 13.3731H149.948C150.236 13.3731 150.476 13.4811 150.668 13.6971C150.86 13.8891 150.956 14.1291 150.956 14.4171C150.956 14.6811 150.86 14.9091 150.668 15.1011C150.476 15.2931 150.236 15.3891 149.948 15.3891H141.56C141.272 15.3891 141.02 15.2931 140.804 15.1011C140.612 14.8851 140.516 14.6451 140.516 14.3811C140.516 14.0931 140.612 13.8531 140.804 13.6611C141.02 13.4691 141.272 13.3731 141.56 13.3731ZM145.268 8.29714C145.58 8.29714 145.832 8.40514 146.024 8.62114C146.24 8.83714 146.348 9.08914 146.348 9.37714V27.4491C146.348 28.1211 146.432 28.6251 146.6 28.9611C146.792 29.2971 147.032 29.5251 147.32 29.6451C147.608 29.7411 147.896 29.7891 148.184 29.7891C148.376 29.7891 148.544 29.7651 148.688 29.7171C148.856 29.6451 149.036 29.6091 149.228 29.6091C149.444 29.6091 149.624 29.6931 149.768 29.8611C149.936 30.0291 150.02 30.2451 150.02 30.5091C150.02 30.8451 149.828 31.1331 149.444 31.3731C149.06 31.5891 148.604 31.6971 148.076 31.6971C147.86 31.6971 147.536 31.6851 147.104 31.6611C146.672 31.6131 146.228 31.4811 145.772 31.2651C145.316 31.0251 144.932 30.6171 144.62 30.0411C144.332 29.4651 144.188 28.6371 144.188 27.5571V9.37714C144.188 9.08914 144.284 8.83714 144.476 8.62114C144.692 8.40514 144.956 8.29714 145.268 8.29714ZM156.028 31.6971C155.692 31.6971 155.428 31.5891 155.236 31.3731C155.044 31.1571 154.948 30.9051 154.948 30.6171V14.4891C154.948 14.2011 155.044 13.9491 155.236 13.7331C155.452 13.5171 155.716 13.4091 156.028 13.4091C156.34 13.4091 156.592 13.5171 156.784 13.7331C157 13.9491 157.108 14.2011 157.108 14.4891V19.8891L156.568 19.9971C156.64 19.1571 156.844 18.3291 157.18 17.5131C157.54 16.6731 158.02 15.9051 158.62 15.2091C159.22 14.5131 159.928 13.9491 160.744 13.5171C161.584 13.0851 162.52 12.8691 163.552 12.8691C163.984 12.8691 164.404 12.9651 164.812 13.1571C165.22 13.3251 165.424 13.6131 165.424 14.0211C165.424 14.3811 165.328 14.6571 165.136 14.8491C164.944 15.0411 164.716 15.1371 164.452 15.1371C164.236 15.1371 163.996 15.0771 163.732 14.9571C163.492 14.8371 163.168 14.7771 162.76 14.7771C162.088 14.7771 161.416 14.9811 160.744 15.3891C160.072 15.7731 159.46 16.3011 158.908 16.9731C158.356 17.6451 157.912 18.4011 157.576 19.2411C157.264 20.0571 157.108 20.8851 157.108 21.7251V30.6171C157.108 30.9051 157 31.1571 156.784 31.3731C156.568 31.5891 156.316 31.6971 156.028 31.6971ZM182.515 12.9771C182.827 12.9771 183.079 13.0851 183.271 13.3011C183.487 13.5171 183.595 13.7691 183.595 14.0571V29.9331C183.595 31.8771 183.211 33.5091 182.443 34.8291C181.675 36.1731 180.643 37.1811 179.347 37.8531C178.051 38.5491 176.575 38.8971 174.919 38.8971C173.887 38.8971 172.927 38.7771 172.039 38.5371C171.175 38.3211 170.467 38.0331 169.915 37.6731C169.627 37.5051 169.411 37.3011 169.267 37.0611C169.123 36.8211 169.111 36.5691 169.231 36.3051C169.351 35.9691 169.531 35.7411 169.771 35.6211C170.035 35.5251 170.299 35.5371 170.563 35.6571C170.971 35.8731 171.559 36.1371 172.327 36.4491C173.095 36.7611 173.971 36.9171 174.955 36.9171C176.275 36.9171 177.415 36.6411 178.375 36.0891C179.359 35.5371 180.115 34.7331 180.643 33.6771C181.171 32.6451 181.435 31.4091 181.435 29.9691V27.3771L181.687 28.2411C181.327 28.9851 180.811 29.6451 180.139 30.2211C179.491 30.7971 178.735 31.2531 177.871 31.5891C177.031 31.9011 176.131 32.0571 175.171 32.0571C173.731 32.0571 172.531 31.7691 171.571 31.1931C170.635 30.5931 169.939 29.7771 169.483 28.7451C169.027 27.7131 168.799 26.5011 168.799 25.1091V14.0571C168.799 13.7691 168.895 13.5171 169.087 13.3011C169.279 13.0851 169.543 12.9771 169.879 12.9771C170.191 12.9771 170.443 13.0851 170.635 13.3011C170.851 13.5171 170.959 13.7691 170.959 14.0571V24.7851C170.959 26.4651 171.319 27.7611 172.039 28.6731C172.783 29.5851 173.983 30.0411 175.639 30.0411C176.671 30.0411 177.619 29.8011 178.483 29.3211C179.347 28.8171 180.055 28.1691 180.607 27.3771C181.159 26.5611 181.435 25.6971 181.435 24.7851V14.0571C181.435 13.7691 181.531 13.5171 181.723 13.3011C181.939 13.0851 182.203 12.9771 182.515 12.9771Z" fill="black"/>
</svg>
