<svg width="63" height="60" viewBox="0 0 63 60" fill="none" xmlns="http://www.w3.org/2000/svg">
<path d="M16.0851 9.54547C12.6 13.0909 11.5276 17.7273 12.3319 27.6818C13.1361 38.0455 17.9617 50.0455 21.8489 51.2727C25.0659 52.3637 28.1489 48.8182 28.1489 43.9091C28.1489 39.9546 30.5617 35.1818 32.1702 36.1364C32.8404 36.5455 33.7787 39.5455 34.3149 42.9546C35.7893 53.4546 40.7489 54.5455 45.3064 45.4091C49.1936 37.6364 51.4723 25.7727 50.4 18.5455C49.0596 10.0909 44.5021 6.27275 36.8617 7.50002C33.9127 8.04547 30.9638 9.00002 30.4276 9.54547C28.283 11.4546 31.7681 12.1364 36.7276 10.7727C43.0276 9.00002 46.3787 11.4546 47.5851 18.8182C48.9255 27.5455 43.4298 47.8637 39.5425 48.2727C38.8723 48.2727 37.8 45.6818 37.1298 42.2727C35.7893 35.1818 34.1808 32.7273 30.8298 32.7273C28.417 32.7273 25.4681 37.9091 25.4681 42.2727C25.4681 45.5455 24.1276 49.0909 22.7872 49.0909C20.7766 49.0909 15.817 34.7727 15.1468 27C14.3425 18.1364 16.3532 11.4546 20.2404 10.2273C21.5808 9.68184 22.7872 8.72729 22.7872 8.04547C22.7872 5.86366 18.9 6.68184 16.0851 9.54547Z" fill="black"/>
<path d="M35.9234 15.6818C33.9128 16.7727 31.0979 17.5909 29.6234 17.3182C28.1489 17.1818 26.8085 17.5909 26.5404 18.4091C25.8702 20.4545 33.5106 20.8636 36.9957 18.9545C39.9447 17.4545 42.4915 13.6364 40.4808 13.6364C39.9447 13.7727 37.934 14.5909 35.9234 15.6818Z" fill="black"/>
</svg>
