<svg width="225" height="47" viewBox="0 0 225 47" fill="none" xmlns="http://www.w3.org/2000/svg">
<path d="M57.0686 6.71669C58.8446 6.71669 60.3926 7.05269 61.7126 7.72469C63.0566 8.39669 64.1606 9.33269 65.0246 10.5327C65.8886 11.7087 66.5246 13.0527 66.9326 14.5647C67.3646 16.0767 67.5806 17.6607 67.5806 19.3167C67.5806 21.6207 67.1966 23.7327 66.4286 25.6527C65.6846 27.5487 64.5326 29.0727 62.9726 30.2247C61.4366 31.3527 59.4686 31.9167 57.0686 31.9167H47.8886C47.6006 31.9167 47.3486 31.8087 47.1326 31.5927C46.9166 31.3767 46.8086 31.1247 46.8086 30.8367V7.79669C46.8086 7.50869 46.9166 7.25669 47.1326 7.04069C47.3486 6.82469 47.6006 6.71669 47.8886 6.71669H57.0686ZM56.7086 29.7927C58.7486 29.7927 60.3926 29.3247 61.6406 28.3887C62.8886 27.4527 63.8006 26.1927 64.3766 24.6087C64.9766 23.0007 65.2766 21.2367 65.2766 19.3167C65.2766 17.9247 65.1086 16.6047 64.7726 15.3567C64.4606 14.0847 63.9566 12.9687 63.2606 12.0087C62.5886 11.0247 61.7006 10.2567 60.5966 9.70469C59.5166 9.12869 58.2206 8.84069 56.7086 8.84069H48.8246L49.0766 8.51669V30.1527L48.8606 29.7927H56.7086ZM80.7409 32.2767C78.8929 32.2767 77.2609 31.8807 75.8449 31.0887C74.4289 30.2967 73.3249 29.1927 72.5329 27.7767C71.7409 26.3607 71.3449 24.7047 71.3449 22.8087C71.3449 20.7687 71.7409 19.0287 72.5329 17.5887C73.3489 16.1487 74.3929 15.0447 75.6649 14.2767C76.9609 13.4847 78.3289 13.0887 79.7689 13.0887C80.8249 13.0887 81.8449 13.2807 82.8289 13.6647C83.8369 14.0247 84.7249 14.5767 85.4929 15.3207C86.2849 16.0407 86.9089 16.9287 87.3649 17.9847C87.8449 19.0407 88.1089 20.2647 88.1569 21.6567C88.1329 21.9447 88.0129 22.1967 87.7969 22.4127C87.5809 22.6047 87.3289 22.7007 87.0409 22.7007H72.6049L72.1729 20.7567H86.3569L85.8889 21.1887V20.4687C85.7929 19.3407 85.4329 18.3807 84.8089 17.5887C84.1849 16.7967 83.4289 16.1967 82.5409 15.7887C81.6529 15.3807 80.7289 15.1767 79.7689 15.1767C79.0489 15.1767 78.3049 15.3207 77.5369 15.6087C76.7929 15.8967 76.1089 16.3527 75.4849 16.9767C74.8849 17.5767 74.3929 18.3567 74.0089 19.3167C73.6249 20.2527 73.4329 21.3687 73.4329 22.6647C73.4329 24.0807 73.7209 25.3647 74.2969 26.5167C74.8729 27.6687 75.7009 28.5807 76.7809 29.2527C77.8849 29.9247 79.1929 30.2607 80.7049 30.2607C81.5449 30.2607 82.3009 30.1407 82.9729 29.9007C83.6449 29.6607 84.2329 29.3487 84.7369 28.9647C85.2409 28.5567 85.6609 28.1367 85.9969 27.7047C86.2609 27.4887 86.5249 27.3807 86.7889 27.3807C87.0289 27.3807 87.2329 27.4767 87.4009 27.6687C87.5929 27.8607 87.6889 28.0767 87.6889 28.3167C87.6889 28.6047 87.5689 28.8567 87.3289 29.0727C86.6089 29.9367 85.6729 30.6927 84.5209 31.3407C83.3689 31.9647 82.1089 32.2767 80.7409 32.2767ZM101.456 13.0887C103.04 13.0887 104.3 13.4127 105.236 14.0607C106.196 14.6847 106.88 15.5487 107.288 16.6527C107.72 17.7327 107.936 18.9327 107.936 20.2527V30.8367C107.936 31.1247 107.828 31.3767 107.612 31.5927C107.396 31.8087 107.144 31.9167 106.856 31.9167C106.52 31.9167 106.256 31.8087 106.064 31.5927C105.872 31.3767 105.776 31.1247 105.776 30.8367V20.3607C105.776 19.4007 105.62 18.5247 105.308 17.7327C104.996 16.9407 104.48 16.3047 103.76 15.8247C103.064 15.3447 102.14 15.1047 100.988 15.1047C99.9563 15.1047 98.9723 15.3447 98.0363 15.8247C97.1243 16.3047 96.3803 16.9407 95.8043 17.7327C95.2283 18.5247 94.9403 19.4007 94.9403 20.3607V30.8367C94.9403 31.1247 94.8323 31.3767 94.6163 31.5927C94.4003 31.8087 94.1483 31.9167 93.8603 31.9167C93.5243 31.9167 93.2603 31.8087 93.0683 31.5927C92.8763 31.3767 92.7803 31.1247 92.7803 30.8367V14.7087C92.7803 14.4207 92.8763 14.1687 93.0683 13.9527C93.2843 13.7367 93.5483 13.6287 93.8603 13.6287C94.1723 13.6287 94.4243 13.7367 94.6163 13.9527C94.8323 14.1687 94.9403 14.4207 94.9403 14.7087V17.7327L94.1123 19.0287C94.1603 18.2607 94.4003 17.5287 94.8323 16.8327C95.2883 16.1127 95.8643 15.4767 96.5603 14.9247C97.2563 14.3487 98.0243 13.9047 98.8643 13.5927C99.7283 13.2567 100.592 13.0887 101.456 13.0887ZM112.405 13.5927H120.793C121.081 13.5927 121.321 13.7007 121.513 13.9167C121.705 14.1087 121.801 14.3487 121.801 14.6367C121.801 14.9007 121.705 15.1287 121.513 15.3207C121.321 15.5127 121.081 15.6087 120.793 15.6087H112.405C112.117 15.6087 111.865 15.5127 111.649 15.3207C111.457 15.1047 111.361 14.8647 111.361 14.6007C111.361 14.3127 111.457 14.0727 111.649 13.8807C111.865 13.6887 112.117 13.5927 112.405 13.5927ZM116.113 8.51669C116.425 8.51669 116.677 8.62469 116.869 8.84069C117.085 9.05669 117.193 9.30869 117.193 9.59669V27.6687C117.193 28.3407 117.277 28.8447 117.445 29.1807C117.637 29.5167 117.877 29.7447 118.165 29.8647C118.453 29.9607 118.741 30.0087 119.029 30.0087C119.221 30.0087 119.389 29.9847 119.533 29.9367C119.701 29.8647 119.881 29.8287 120.073 29.8287C120.289 29.8287 120.469 29.9127 120.613 30.0807C120.781 30.2487 120.865 30.4647 120.865 30.7287C120.865 31.0647 120.673 31.3527 120.289 31.5927C119.905 31.8087 119.449 31.9167 118.921 31.9167C118.705 31.9167 118.381 31.9047 117.949 31.8807C117.517 31.8327 117.073 31.7007 116.617 31.4847C116.161 31.2447 115.777 30.8367 115.465 30.2607C115.177 29.6847 115.033 28.8567 115.033 27.7767V9.59669C115.033 9.30869 115.129 9.05669 115.321 8.84069C115.537 8.62469 115.801 8.51669 116.113 8.51669ZM127.88 30.8367C127.88 31.1247 127.772 31.3767 127.556 31.5927C127.34 31.8087 127.088 31.9167 126.8 31.9167C126.488 31.9167 126.224 31.8087 126.008 31.5927C125.816 31.3767 125.72 31.1247 125.72 30.8367V14.2767C125.72 13.9887 125.816 13.7367 126.008 13.5207C126.224 13.3047 126.488 13.1967 126.8 13.1967C127.112 13.1967 127.364 13.3047 127.556 13.5207C127.772 13.7367 127.88 13.9887 127.88 14.2767V30.8367ZM126.8 10.7847C126.296 10.7847 125.912 10.6767 125.648 10.4607C125.408 10.2207 125.288 9.88469 125.288 9.45269V9.09269C125.288 8.66069 125.42 8.33669 125.684 8.12069C125.972 7.88069 126.356 7.76069 126.836 7.76069C127.292 7.76069 127.64 7.88069 127.88 8.12069C128.144 8.33669 128.276 8.66069 128.276 9.09269V9.45269C128.276 9.88469 128.144 10.2207 127.88 10.4607C127.64 10.6767 127.28 10.7847 126.8 10.7847ZM132.447 29.0007C132.255 28.7127 132.159 28.4367 132.159 28.1727C132.183 27.8847 132.339 27.6567 132.627 27.4887C132.819 27.3207 133.035 27.2487 133.275 27.2727C133.539 27.2967 133.779 27.4167 133.995 27.6327C134.643 28.4727 135.423 29.1567 136.335 29.6847C137.271 30.1887 138.375 30.4407 139.647 30.4407C140.319 30.4407 140.979 30.3327 141.627 30.1167C142.299 29.8767 142.851 29.5287 143.283 29.0727C143.715 28.5927 143.931 27.9927 143.931 27.2727C143.931 26.5287 143.715 25.9287 143.283 25.4727C142.851 25.0167 142.287 24.6567 141.591 24.3927C140.919 24.1287 140.199 23.9007 139.431 23.7087C138.615 23.4927 137.823 23.2527 137.055 22.9887C136.287 22.7007 135.603 22.3527 135.003 21.9447C134.427 21.5127 133.959 20.9967 133.599 20.3967C133.239 19.7967 133.059 19.0647 133.059 18.2007C133.059 17.1927 133.335 16.3047 133.887 15.5367C134.439 14.7687 135.183 14.1687 136.119 13.7367C137.079 13.3047 138.159 13.0887 139.359 13.0887C139.959 13.0887 140.607 13.1727 141.303 13.3407C141.999 13.4847 142.683 13.7367 143.355 14.0967C144.027 14.4567 144.627 14.9487 145.155 15.5727C145.371 15.7887 145.479 16.0407 145.479 16.3287C145.479 16.5927 145.359 16.8327 145.119 17.0487C144.927 17.1927 144.699 17.2647 144.435 17.2647C144.195 17.2647 143.991 17.1687 143.823 16.9767C143.247 16.3287 142.563 15.8367 141.771 15.5007C140.979 15.1647 140.127 14.9967 139.215 14.9967C138.519 14.9967 137.859 15.1167 137.235 15.3567C136.635 15.5727 136.131 15.9087 135.723 16.3647C135.315 16.8207 135.111 17.4207 135.111 18.1647C135.159 18.8607 135.399 19.4247 135.831 19.8567C136.287 20.2887 136.875 20.6487 137.595 20.9367C138.339 21.2247 139.167 21.4887 140.079 21.7287C140.847 21.9207 141.579 22.1487 142.275 22.4127C142.995 22.6767 143.619 23.0127 144.147 23.4207C144.699 23.8047 145.131 24.2967 145.443 24.8967C145.779 25.4967 145.947 26.2527 145.947 27.1647C145.947 28.2207 145.647 29.1327 145.047 29.9007C144.471 30.6687 143.691 31.2567 142.707 31.6647C141.723 32.0727 140.631 32.2767 139.431 32.2767C138.135 32.2767 136.875 32.0247 135.651 31.5207C134.451 31.0167 133.383 30.1767 132.447 29.0007ZM149.178 13.5927H157.566C157.854 13.5927 158.094 13.7007 158.286 13.9167C158.478 14.1087 158.574 14.3487 158.574 14.6367C158.574 14.9007 158.478 15.1287 158.286 15.3207C158.094 15.5127 157.854 15.6087 157.566 15.6087H149.178C148.89 15.6087 148.638 15.5127 148.422 15.3207C148.23 15.1047 148.134 14.8647 148.134 14.6007C148.134 14.3127 148.23 14.0727 148.422 13.8807C148.638 13.6887 148.89 13.5927 149.178 13.5927ZM152.886 8.51669C153.198 8.51669 153.45 8.62469 153.642 8.84069C153.858 9.05669 153.966 9.30869 153.966 9.59669V27.6687C153.966 28.3407 154.05 28.8447 154.218 29.1807C154.41 29.5167 154.65 29.7447 154.938 29.8647C155.226 29.9607 155.514 30.0087 155.802 30.0087C155.994 30.0087 156.162 29.9847 156.306 29.9367C156.474 29.8647 156.654 29.8287 156.846 29.8287C157.062 29.8287 157.242 29.9127 157.386 30.0807C157.554 30.2487 157.638 30.4647 157.638 30.7287C157.638 31.0647 157.446 31.3527 157.062 31.5927C156.678 31.8087 156.222 31.9167 155.694 31.9167C155.478 31.9167 155.154 31.9047 154.722 31.8807C154.29 31.8327 153.846 31.7007 153.39 31.4847C152.934 31.2447 152.55 30.8367 152.238 30.2607C151.95 29.6847 151.806 28.8567 151.806 27.7767V9.59669C151.806 9.30869 151.902 9.05669 152.094 8.84069C152.31 8.62469 152.574 8.51669 152.886 8.51669ZM163.645 31.9167C163.309 31.9167 163.045 31.8087 162.853 31.5927C162.661 31.3767 162.565 31.1247 162.565 30.8367V14.7087C162.565 14.4207 162.661 14.1687 162.853 13.9527C163.069 13.7367 163.333 13.6287 163.645 13.6287C163.957 13.6287 164.209 13.7367 164.401 13.9527C164.617 14.1687 164.725 14.4207 164.725 14.7087V20.1087L164.185 20.2167C164.257 19.3767 164.461 18.5487 164.797 17.7327C165.157 16.8927 165.637 16.1247 166.237 15.4287C166.837 14.7327 167.545 14.1687 168.361 13.7367C169.201 13.3047 170.137 13.0887 171.169 13.0887C171.601 13.0887 172.021 13.1847 172.429 13.3767C172.837 13.5447 173.041 13.8327 173.041 14.2407C173.041 14.6007 172.945 14.8767 172.753 15.0687C172.561 15.2607 172.333 15.3567 172.069 15.3567C171.853 15.3567 171.613 15.2967 171.349 15.1767C171.109 15.0567 170.785 14.9967 170.377 14.9967C169.705 14.9967 169.033 15.2007 168.361 15.6087C167.689 15.9927 167.077 16.5207 166.525 17.1927C165.973 17.8647 165.529 18.6207 165.193 19.4607C164.881 20.2767 164.725 21.1047 164.725 21.9447V30.8367C164.725 31.1247 164.617 31.3767 164.401 31.5927C164.185 31.8087 163.933 31.9167 163.645 31.9167ZM190.133 13.1967C190.445 13.1967 190.697 13.3047 190.889 13.5207C191.105 13.7367 191.213 13.9887 191.213 14.2767V30.1527C191.213 32.0967 190.829 33.7287 190.061 35.0487C189.293 36.3927 188.261 37.4007 186.965 38.0727C185.669 38.7687 184.193 39.1167 182.537 39.1167C181.505 39.1167 180.545 38.9967 179.657 38.7567C178.793 38.5407 178.085 38.2527 177.533 37.8927C177.245 37.7247 177.029 37.5207 176.885 37.2807C176.741 37.0407 176.729 36.7887 176.849 36.5247C176.969 36.1887 177.149 35.9607 177.389 35.8407C177.653 35.7447 177.917 35.7567 178.181 35.8767C178.589 36.0927 179.177 36.3567 179.945 36.6687C180.713 36.9807 181.589 37.1367 182.573 37.1367C183.893 37.1367 185.033 36.8607 185.993 36.3087C186.977 35.7567 187.733 34.9527 188.261 33.8967C188.789 32.8647 189.053 31.6287 189.053 30.1887V27.5967L189.305 28.4607C188.945 29.2047 188.429 29.8647 187.757 30.4407C187.109 31.0167 186.353 31.4727 185.489 31.8087C184.649 32.1207 183.749 32.2767 182.789 32.2767C181.349 32.2767 180.149 31.9887 179.189 31.4127C178.253 30.8127 177.557 29.9967 177.101 28.9647C176.645 27.9327 176.417 26.7207 176.417 25.3287V14.2767C176.417 13.9887 176.513 13.7367 176.705 13.5207C176.897 13.3047 177.161 13.1967 177.497 13.1967C177.809 13.1967 178.061 13.3047 178.253 13.5207C178.469 13.7367 178.577 13.9887 178.577 14.2767V25.0047C178.577 26.6847 178.937 27.9807 179.657 28.8927C180.401 29.8047 181.601 30.2607 183.257 30.2607C184.289 30.2607 185.237 30.0207 186.101 29.5407C186.965 29.0367 187.673 28.3887 188.225 27.5967C188.777 26.7807 189.053 25.9167 189.053 25.0047V14.2767C189.053 13.9887 189.149 13.7367 189.341 13.5207C189.557 13.3047 189.821 13.1967 190.133 13.1967Z" fill="black"/>
<path d="M12.479 7.47079C9.77523 10.2457 8.94329 13.8743 9.56725 21.6653C10.1912 29.7765 13.9349 39.1684 16.9507 40.1289C19.4465 40.9827 21.8383 38.2079 21.8383 34.3657C21.8383 31.2707 23.7101 27.5353 24.958 28.2823C25.478 28.6025 26.2059 30.9505 26.6219 33.6186C27.7658 41.8365 31.6135 42.6903 35.1492 35.5397C38.165 29.4563 39.9328 20.1712 39.1009 14.5147C38.061 7.8977 34.5253 4.90937 28.5977 5.86991C26.3099 6.29681 24.0221 7.04389 23.6061 7.47079C21.9423 8.96496 24.646 9.49859 28.4937 8.43133C33.3813 7.04389 35.9811 8.96495 36.9171 14.7282C37.957 21.5586 33.6933 37.4608 30.6776 37.7809C30.1576 37.7809 29.3257 35.7532 28.8057 33.085C27.7658 27.5353 26.5179 25.6142 23.9181 25.6142C22.0463 25.6142 19.7584 29.6698 19.7584 33.085C19.7584 35.6464 18.7185 38.4213 17.6786 38.4213C16.1187 38.4213 12.271 27.2151 11.7511 21.1317C11.1271 14.1945 12.687 8.96496 15.7028 8.00442C16.7427 7.57752 17.6786 6.83044 17.6786 6.29681C17.6786 4.58919 14.6628 5.22955 12.479 7.47079Z" fill="black"/>
<path d="M27.8698 12.2735C26.3099 13.1273 24.1261 13.7676 22.9822 13.5542C21.8382 13.4475 20.7983 13.7676 20.5903 14.408C20.0704 16.0089 25.9979 16.3291 28.7017 14.8349C30.9895 13.6609 32.9654 10.6726 31.4055 10.6726C30.9895 10.7793 29.4296 11.4197 27.8698 12.2735Z" fill="black"/>
</svg>
